<svg width="24" height="24" viewBox="0 0 24 24" fill="none" xmlns="http://www.w3.org/2000/svg">
<path d="M9.474 16L18.655 19.284C18.8092 19.3394 18.9739 19.3597 19.137 19.3433C19.3001 19.3269 19.4575 19.2743 19.5976 19.1893C19.7377 19.1043 19.8571 18.989 19.947 18.8519C20.0368 18.7148 20.0949 18.5594 20.117 18.397L21.99 4.239C22.104 3.377 21.211 2.734 20.423 3.109L2.624 11.605C1.744 12.025 1.81 13.295 2.73 13.622L5.17 14.49L6.5 14.957M13 17.26L11.01 20.586C10.36 21.394 9.051 20.937 9.051 19.903V17.24C9.05103 16.7375 9.24025 16.2534 9.581 15.884L13.452 11.684" stroke="#D1D1D1" stroke-linecap="round" stroke-linejoin="round"/>
</svg>
