<svg width="17" height="16" viewBox="0 0 17 16" fill="none" xmlns="http://www.w3.org/2000/svg">
<path d="M4.8335 6C5.93807 6 6.8335 5.10457 6.8335 4C6.8335 2.89543 5.93807 2 4.8335 2C3.72893 2 2.8335 2.89543 2.8335 4C2.8335 5.10457 3.72893 6 4.8335 6Z" stroke="#454545" stroke-width="1.33"/>
<path d="M6.83345 8.66666H4.04545C3.56851 8.66667 3.10729 8.83711 2.74496 9.14724C2.38263 9.45737 2.14305 9.88677 2.06945 10.358L1.74011 12.46C1.71025 12.6503 1.72199 12.8448 1.77451 13.0302C1.82703 13.2155 1.91908 13.3873 2.04434 13.5336C2.1696 13.68 2.32508 13.7975 2.50009 13.878C2.6751 13.9585 2.86547 14.0001 3.05811 14H6.16678M14.5934 12.4607L14.2641 10.358C14.1905 9.88677 13.9509 9.45737 13.5886 9.14724C13.2263 8.83711 12.765 8.66667 12.2881 8.66666H10.7121C10.2352 8.66667 9.77395 8.83711 9.41162 9.14724C9.04929 9.45737 8.80972 9.88677 8.73611 10.358L8.40745 12.4607C8.3777 12.6509 8.3895 12.8453 8.44203 13.0305C8.49456 13.2157 8.58657 13.3873 8.71175 13.5336C8.83692 13.6799 8.99228 13.7973 9.16716 13.8778C9.34203 13.9583 9.53226 14 9.72478 14H13.2754C13.468 14 13.6582 13.9583 13.8331 13.8778C14.0079 13.7973 14.1633 13.6799 14.2885 13.5336C14.4137 13.3873 14.5057 13.2157 14.5582 13.0305C14.6107 12.8453 14.6232 12.6509 14.5934 12.4607Z" stroke="#454545" stroke-width="1.33" stroke-linecap="round" stroke-linejoin="round"/>
<path d="M11.5001 6C12.6047 6 13.5001 5.10457 13.5001 4C13.5001 2.89543 12.6047 2 11.5001 2C10.3956 2 9.50012 2.89543 9.50012 4C9.50012 5.10457 10.3956 6 11.5001 6Z" stroke="#454545" stroke-width="1.33"/>
</svg>
