<svg width="24" height="24" viewBox="0 0 24 24" fill="none" xmlns="http://www.w3.org/2000/svg">
<rect width="24" height="24" rx="12" fill="#D1D1D1"/>
<path d="M18 18L15.1047 15.1047M15.1047 15.1047C15.5999 14.6094 15.9928 14.0215 16.2608 13.3744C16.5288 12.7273 16.6668 12.0338 16.6668 11.3333C16.6668 10.6329 16.5289 9.9394 16.2608 9.29232C15.9928 8.64523 15.5999 8.05727 15.1047 7.56202C14.6094 7.06676 14.0215 6.6739 13.3744 6.40586C12.7273 6.13783 12.0337 5.99988 11.3333 5.99988C10.6329 5.99988 9.93939 6.13783 9.2923 6.40586C8.64522 6.6739 8.05726 7.06676 7.562 7.56202C6.56178 8.56224 5.99986 9.91882 5.99986 11.3333C5.99986 12.7479 6.56178 14.1045 7.562 15.1047C8.56222 16.1049 9.91881 16.6668 11.3333 16.6668C12.7479 16.6668 14.1044 16.1049 15.1047 15.1047Z" stroke="#3D3D3D" stroke-linecap="round" stroke-linejoin="round"/>
</svg>
