<svg width="16" height="17" viewBox="0 0 16 17" fill="none" xmlns="http://www.w3.org/2000/svg">
<path d="M2.66667 11.5V13.8334C2.66667 14.187 2.80714 14.5261 3.05719 14.7762C3.30724 15.0262 3.64638 15.1667 4 15.1667H12C12.3536 15.1667 12.6928 15.0262 12.9428 14.7762C13.1929 14.5261 13.3333 14.187 13.3333 13.8334V11.5M2 9.83337V9.16671C2 8.81308 2.14048 8.47395 2.39052 8.2239C2.64057 7.97385 2.97971 7.83337 3.33333 7.83337H12.6667C13.0203 7.83337 13.3594 7.97385 13.6095 8.2239C13.8595 8.47395 14 8.81308 14 9.16671V9.83337M8 5.83337V7.83337M8 5.83337C8.84133 5.83337 9.33333 5.18804 9.33333 4.08337C9.33333 2.97871 8 1.83337 8 1.83337C8 1.83337 6.66667 2.97871 6.66667 4.08337C6.66667 5.18804 7.15867 5.83337 8 5.83337Z" stroke="#4F4F4F" stroke-linecap="round" stroke-linejoin="round"/>
<path d="M2 9.83337C2 10.3638 2.21071 10.8725 2.58579 11.2476C2.96086 11.6227 3.46957 11.8334 4 11.8334C4.53043 11.8334 5.03914 11.6227 5.41421 11.2476C5.78929 10.8725 6 10.3638 6 9.83337C6 10.3638 6.21071 10.8725 6.58579 11.2476C6.96086 11.6227 7.46957 11.8334 8 11.8334C8.53043 11.8334 9.03914 11.6227 9.41421 11.2476C9.78929 10.8725 10 10.3638 10 9.83337C10 10.3638 10.2107 10.8725 10.5858 11.2476C10.9609 11.6227 11.4696 11.8334 12 11.8334C12.5304 11.8334 13.0391 11.6227 13.4142 11.2476C13.7893 10.8725 14 10.3638 14 9.83337" stroke="#4F4F4F" stroke-linecap="round" stroke-linejoin="round"/>
</svg>
