<svg width="17" height="16" viewBox="0 0 17 16" fill="none" xmlns="http://www.w3.org/2000/svg">
<path d="M6.66671 6.66667C6.97312 6.66667 7.27654 6.60631 7.55963 6.48905C7.84273 6.37179 8.09995 6.19992 8.31662 5.98325C8.53329 5.76658 8.70517 5.50935 8.82243 5.22626C8.93969 4.94317 9.00004 4.63975 9.00004 4.33333C9.00004 4.02692 8.93969 3.7235 8.82243 3.44041C8.70517 3.15731 8.53329 2.90009 8.31662 2.68342C8.09995 2.46675 7.84273 2.29488 7.55963 2.17761C7.27654 2.06035 6.97312 2 6.66671 2C6.04787 2 5.45438 2.24583 5.01679 2.68342C4.57921 3.121 4.33337 3.71449 4.33337 4.33333C4.33337 4.95217 4.57921 5.54566 5.01679 5.98325C5.45438 6.42083 6.04787 6.66667 6.66671 6.66667Z" stroke="#454545" stroke-width="1.33" stroke-linejoin="round"/>
<path d="M12.3334 9.66668V13.6667M10.3334 11.6667H14.3334M9.33337 9.33334H6.60004C5.10671 9.33334 4.36004 9.33334 3.78937 9.62401C3.28763 9.87967 2.8797 10.2876 2.62404 10.7893C2.33337 11.36 2.33337 12.1067 2.33337 13.6V13.6C2.33337 13.8209 2.51246 14 2.73337 14H9.33337" stroke="#454545" stroke-width="1.33" stroke-linecap="round" stroke-linejoin="round"/>
</svg>
