<svg width="32" height="32" viewBox="0 0 32 32" fill="none" xmlns="http://www.w3.org/2000/svg">
<circle cx="16" cy="16" r="16" fill="white"/>
<path d="M15.5434 11.6109C15.6238 11.791 15.8026 11.9071 15.9999 11.9071C16.1973 11.9071 16.3761 11.7911 16.4565 11.6109C18.0199 8.10869 21.5532 7.91687 23.0992 9.31158L23.102 9.31405C23.7351 9.87669 24.2458 10.8791 24.4284 12.1194C24.6096 13.3499 24.4602 14.7723 23.8246 16.1378C22.7048 18.5365 20.7117 20.3886 18.9675 21.6507C18.0994 22.2789 17.3024 22.7541 16.7236 23.0716C16.4343 23.2303 16.2002 23.3493 16.0395 23.4281C16.0258 23.4348 16.0126 23.4412 16 23.4473C15.9874 23.4412 15.9742 23.4348 15.9605 23.4281C15.7999 23.3493 15.5657 23.2303 15.2765 23.0716C14.6977 22.7541 13.9009 22.2789 13.0328 21.6507C11.2889 20.3887 9.2958 18.5367 8.17547 16.1381C7.53974 14.7725 7.39031 13.35 7.57152 12.1194C7.75414 10.8791 8.26479 9.87669 8.89793 9.31405L8.89794 9.31406L8.90071 9.31156C10.4469 7.91679 13.9801 8.10785 15.5434 11.6109Z" stroke="url(#paint0_linear_213_2571)" stroke-linecap="round" stroke-linejoin="round"/>
<defs>
<linearGradient id="paint0_linear_213_2571" x1="6.99997" y1="8" x2="12.4896" y2="27.5186" gradientUnits="userSpaceOnUse">
<stop stop-color="#FF4BC1"/>
<stop offset="1" stop-color="#DA155A"/>
</linearGradient>
</defs>
</svg>
