<svg width="24" height="24" viewBox="0 0 24 24" fill="none" xmlns="http://www.w3.org/2000/svg">
<rect width="24" height="24" rx="4" fill="white"/>
<path fill-rule="evenodd" clip-rule="evenodd" d="M9.00002 8.5C9.00013 8.94842 8.84954 9.38387 8.57243 9.73642C8.29532 10.089 7.90778 10.3382 7.47202 10.444L7.50102 10.437L7.50002 19.5C7.50002 19.6326 7.44734 19.7598 7.35357 19.8536C7.25981 19.9473 7.13263 20 7.00002 20C6.86741 20 6.74024 19.9473 6.64647 19.8536C6.5527 19.7598 6.50002 19.6326 6.50002 19.5V10.437L6.53102 10.445C6.09395 10.3403 5.70488 10.0915 5.42654 9.73863C5.1482 9.38576 4.99683 8.94943 4.99683 8.5C4.99683 8.05057 5.1482 7.61424 5.42654 7.26137C5.70488 6.90851 6.09395 6.65967 6.53102 6.555L6.49902 6.563L6.50002 4.5C6.50002 4.36739 6.5527 4.24021 6.64647 4.14645C6.74024 4.05268 6.86741 4 7.00002 4C7.13263 4 7.25981 4.05268 7.35357 4.14645C7.44734 4.24021 7.50002 4.36739 7.50002 4.5L7.50102 6.563L7.47102 6.556C7.90696 6.66164 8.29474 6.91075 8.57204 7.26332C8.84934 7.61589 9.00008 8.05144 9.00002 8.5ZM8.00002 8.5C8.00002 8.23478 7.89466 7.98043 7.70713 7.79289C7.51959 7.60536 7.26524 7.5 7.00002 7.5C6.7348 7.5 6.48045 7.60536 6.29291 7.79289C6.10538 7.98043 6.00002 8.23478 6.00002 8.5C6.00002 8.76522 6.10538 9.01957 6.29291 9.20711C6.48045 9.39464 6.7348 9.5 7.00002 9.5C7.26524 9.5 7.51959 9.39464 7.70713 9.20711C7.89466 9.01957 8.00002 8.76522 8.00002 8.5ZM14 16.5C14.0001 16.9484 13.8495 17.3839 13.5724 17.7364C13.2953 18.089 12.9078 18.3382 12.472 18.444L12.501 18.437L12.5 19.5C12.5 19.6326 12.4473 19.7598 12.3536 19.8536C12.2598 19.9473 12.1326 20 12 20C11.8674 20 11.7402 19.9473 11.6465 19.8536C11.5527 19.7598 11.5 19.6326 11.5 19.5V18.437L11.531 18.445C11.094 18.3403 10.7049 18.0915 10.4265 17.7386C10.1482 17.3858 9.99683 16.9494 9.99683 16.5C9.99683 16.0506 10.1482 15.6142 10.4265 15.2614C10.7049 14.9085 11.094 14.6597 11.531 14.555L11.499 14.563L11.5 4.5C11.5 4.36739 11.5527 4.24021 11.6465 4.14645C11.7402 4.05268 11.8674 4 12 4C12.1326 4 12.2598 4.05268 12.3536 4.14645C12.4473 4.24021 12.5 4.36739 12.5 4.5L12.501 14.563L12.471 14.556C12.907 14.6616 13.2947 14.9108 13.572 15.2633C13.8493 15.6159 14.0001 16.0514 14 16.5ZM13 16.5C13 16.2348 12.8947 15.9804 12.7071 15.7929C12.5196 15.6054 12.2652 15.5 12 15.5C11.7348 15.5 11.4805 15.6054 11.2929 15.7929C11.1054 15.9804 11 16.2348 11 16.5C11 16.7652 11.1054 17.0196 11.2929 17.2071C11.4805 17.3946 11.7348 17.5 12 17.5C12.2652 17.5 12.5196 17.3946 12.7071 17.2071C12.8947 17.0196 13 16.7652 13 16.5ZM19 11.5C19.0001 11.9477 18.85 12.3825 18.5737 12.7348C18.2974 13.0871 17.9109 13.3364 17.476 13.443L17.5 13.437V19.5C17.5 19.6326 17.4473 19.7598 17.3536 19.8536C17.2598 19.9473 17.1326 20 17 20C16.8674 20 16.7402 19.9473 16.6465 19.8536C16.5527 19.7598 16.5 19.6326 16.5 19.5L16.499 13.437L16.531 13.445C16.094 13.3403 15.7049 13.0915 15.4265 12.7386C15.1482 12.3858 14.9968 11.9494 14.9968 11.5C14.9968 11.0506 15.1482 10.6142 15.4265 10.2614C15.7049 9.90851 16.094 9.65967 16.531 9.555L16.499 9.563L16.5 4.5C16.5 4.36739 16.5527 4.24021 16.6465 4.14645C16.7402 4.05268 16.8674 4 17 4C17.1326 4 17.2598 4.05268 17.3536 4.14645C17.4473 4.24021 17.5 4.36739 17.5 4.5V9.563L17.476 9.557C17.9109 9.66356 18.2974 9.91293 18.5737 10.2652C18.85 10.6175 19.0001 11.0523 19 11.5ZM18 11.5C18 11.2348 17.8947 10.9804 17.7071 10.7929C17.5196 10.6054 17.2652 10.5 17 10.5C16.7348 10.5 16.4804 10.6054 16.2929 10.7929C16.1054 10.9804 16 11.2348 16 11.5C16 11.7652 16.1054 12.0196 16.2929 12.2071C16.4804 12.3946 16.7348 12.5 17 12.5C17.2652 12.5 17.5196 12.3946 17.7071 12.2071C17.8947 12.0196 18 11.7652 18 11.5Z" fill="#4F4F4F"/>
</svg>
