<svg width="24" height="24" viewBox="0 0 24 24" fill="none" xmlns="http://www.w3.org/2000/svg">
<path d="M7.49955 7.8752V16.4997C7.49946 16.746 7.5479 16.9899 7.64211 17.2174C7.73632 17.445 7.87445 17.6517 8.0486 17.8259C8.22275 18.0001 8.42952 18.1382 8.65708 18.2324C8.88464 18.3266 9.12853 18.375 9.37482 18.375H14.625C15.1222 18.375 15.599 18.1775 15.9506 17.8259C16.3021 17.4743 16.4996 16.9975 16.4996 16.5004V7.87451M5.99988 7.8752H18" stroke="#4F4F4F" stroke-width="1.33" stroke-linecap="round" stroke-linejoin="round"/>
<path d="M9.74976 7.8752V6.74975C9.74958 6.60194 9.77857 6.45554 9.83507 6.31896C9.89157 6.18237 9.97448 6.05827 10.079 5.95379C10.1836 5.8493 10.3077 5.76647 10.4443 5.71005C10.581 5.65363 10.7274 5.62473 10.8752 5.625H13.1247C13.2725 5.62473 13.4189 5.65363 13.5556 5.71005C13.6922 5.76647 13.8163 5.8493 13.9209 5.95379C14.0254 6.05827 14.1083 6.18237 14.1648 6.31896C14.2213 6.45554 14.2503 6.60194 14.2501 6.74975V7.8752M10.5003 15.4404V11.6919M13.5003 15.4404V11.6919" stroke="#4F4F4F" stroke-width="1.33" stroke-linecap="round" stroke-linejoin="round"/>
</svg>
