<svg width="24" height="24" viewBox="0 0 24 24" fill="none" xmlns="http://www.w3.org/2000/svg">
<rect width="24" height="24" rx="12" fill="#D1D1D1"/>
<path d="M6.66667 7H17.3333C17.5101 7 17.6797 7.06541 17.8047 7.18183C17.9298 7.29825 18 7.45616 18 7.6208V8.6054C18 8.77003 17.9297 8.92791 17.8047 9.04431L13.5287 13.0261C13.4036 13.1425 13.3334 13.3004 13.3333 13.465V17.3792C13.3333 17.4736 13.3102 17.5667 13.2658 17.6515C13.2213 17.7363 13.1567 17.8106 13.0768 17.8686C12.9969 17.9267 12.9039 17.967 12.8047 17.9865C12.7056 18.0061 12.603 18.0043 12.5047 17.9814L11.1713 17.671C11.0272 17.6374 10.8992 17.5598 10.8078 17.4507C10.7163 17.3416 10.6667 17.2072 10.6667 17.0688V13.465C10.6666 13.3004 10.5964 13.1425 10.4713 13.0261L6.19533 9.04431C6.0703 8.92791 6.00004 8.77003 6 8.6054V7.6208C6 7.45616 6.07024 7.29825 6.19526 7.18183C6.32029 7.06541 6.48986 7 6.66667 7Z" stroke="#3D3D3D" stroke-linecap="round" stroke-linejoin="round"/>
</svg>
