<svg width="25" height="24" viewBox="0 0 25 24" fill="none" xmlns="http://www.w3.org/2000/svg">
<path d="M10.7421 17.085L9.22596 18.6434C8.82839 19.0639 8.28918 19.3002 7.72694 19.3002C7.1647 19.3002 6.62548 19.0639 6.22792 18.6434C5.83035 18.2229 5.607 17.6525 5.607 17.0578C5.607 16.4631 5.83035 15.8927 6.22792 15.4722L10.1168 11.3496C10.4985 10.9445 11.0128 10.7101 11.5533 10.695C12.0938 10.6798 12.6191 10.885 13.0206 11.268L13.1234 11.3586C13.2859 11.5268 13.5048 11.6199 13.7321 11.6174C13.9594 11.6148 14.1765 11.5169 14.3355 11.345C14.4945 11.1732 14.5825 10.9416 14.5801 10.7012C14.5777 10.4608 14.4851 10.2312 14.3226 10.063C14.274 9.99706 14.2226 9.93357 14.1685 9.87269C13.4372 9.19977 12.4915 8.84598 11.5229 8.88299C10.5544 8.92 9.63526 9.34505 8.95185 10.072L5.01157 14.1946C4.34202 14.9655 3.97991 15.9802 4.00086 17.0267C4.02181 18.0733 4.42419 19.0709 5.12398 19.8111C5.82377 20.5513 6.76685 20.9769 7.75627 20.9991C8.7457 21.0212 9.70497 20.6382 10.4337 19.93L11.9156 18.3988C12.062 18.2299 12.1424 18.0087 12.1408 17.7797C12.1391 17.5506 12.0555 17.3307 11.9068 17.1643C11.7581 16.9978 11.5553 16.897 11.3392 16.8823C11.1231 16.8676 10.9098 16.94 10.7421 17.085ZM19.899 4.18261C19.1784 3.42514 18.2038 3 17.1879 3C16.172 3 15.1974 3.42514 14.4768 4.18261L12.9949 5.71385C12.8486 5.8827 12.7682 6.1039 12.7698 6.33294C12.7714 6.56198 12.855 6.78187 13.0037 6.94835C13.1525 7.11484 13.3553 7.21558 13.5714 7.23029C13.7874 7.245 14.0008 7.1726 14.1685 7.02765L15.6503 5.46922C16.0479 5.04869 16.5871 4.81244 17.1494 4.81244C17.7116 4.81244 18.2508 5.04869 18.6484 5.46922C19.046 5.88975 19.2693 6.46011 19.2693 7.05483C19.2693 7.64955 19.046 8.21991 18.6484 8.64044L14.7595 12.763C14.3778 13.1681 13.8635 13.4025 13.323 13.4176C12.7825 13.4328 12.2572 13.2277 11.8557 12.8446L11.7529 12.754C11.5905 12.5858 11.3715 12.4927 11.1442 12.4952C10.9169 12.4978 10.6998 12.5957 10.5408 12.7676C10.3818 12.9394 10.2938 13.171 10.2962 13.4114C10.2986 13.6519 10.3912 13.8814 10.5537 14.0496C10.6162 14.1166 10.6819 14.1801 10.7507 14.2399C11.4828 14.9108 12.4281 15.2633 13.3961 15.2263C14.3641 15.1893 15.2829 14.7656 15.9673 14.0406L19.8647 9.91799C20.5854 9.16059 20.9935 8.13235 20.9999 7.05777C21.0063 5.9832 20.6106 4.94958 19.899 4.18261Z" fill="#6D6D6D"/>
</svg>
