<svg width="16" height="17" viewBox="0 0 16 17" fill="none" xmlns="http://www.w3.org/2000/svg">
<path d="M8 5.83337V14.5M2 6.50004C2 6.32323 2.07024 6.15366 2.19526 6.02864C2.32029 5.90361 2.48986 5.83337 2.66667 5.83337H13.3333C13.5101 5.83337 13.6797 5.90361 13.8047 6.02864C13.9298 6.15366 14 6.32323 14 6.50004V7.83337C14 8.01019 13.9298 8.17975 13.8047 8.30478C13.6797 8.4298 13.5101 8.50004 13.3333 8.50004H2.66667C2.48986 8.50004 2.32029 8.4298 2.19526 8.30478C2.07024 8.17975 2 8.01019 2 7.83337V6.50004Z" stroke="#FF4BC1" stroke-width="1.33" stroke-linecap="round" stroke-linejoin="round"/>
<path d="M12.6667 8.50005V13.1667C12.6667 13.5203 12.5262 13.8595 12.2762 14.1095C12.0261 14.3596 11.687 14.5 11.3334 14.5H4.66671C4.31309 14.5 3.97395 14.3596 3.7239 14.1095C3.47385 13.8595 3.33337 13.5203 3.33337 13.1667V8.50005M5.00004 5.83338C4.55801 5.83338 4.13409 5.65779 3.82153 5.34523C3.50897 5.03266 3.33337 4.60874 3.33337 4.16671C3.33337 3.72469 3.50897 3.30076 3.82153 2.9882C4.13409 2.67564 4.55801 2.50005 5.00004 2.50005C5.64316 2.48884 6.27339 2.80089 6.80853 3.39549C7.34367 3.99009 7.75889 4.83965 8.00004 5.83338C8.24119 4.83965 8.65641 3.99009 9.19155 3.39549C9.72669 2.80089 10.3569 2.48884 11 2.50005C11.4421 2.50005 11.866 2.67564 12.1786 2.9882C12.4911 3.30076 12.6667 3.72469 12.6667 4.16671C12.6667 4.60874 12.4911 5.03266 12.1786 5.34523C11.866 5.65779 11.4421 5.83338 11 5.83338" stroke="#FF4BC1" stroke-width="1.33" stroke-linecap="round" stroke-linejoin="round"/>
</svg>
