<svg width="24" height="24" viewBox="0 0 24 24" fill="none" xmlns="http://www.w3.org/2000/svg">
<path d="M6.66667 15.9999C6.66667 15.2927 6.94762 14.6144 7.44772 14.1143C7.94782 13.6142 8.62609 13.3333 9.33334 13.3333H14.6667C15.3739 13.3333 16.0522 13.6142 16.5523 14.1143C17.0524 14.6144 17.3333 15.2927 17.3333 15.9999C17.3333 16.3535 17.1929 16.6927 16.9428 16.9427C16.6928 17.1928 16.3536 17.3333 16 17.3333H8.00001C7.64638 17.3333 7.30724 17.1928 7.0572 16.9427C6.80715 16.6927 6.66667 16.3535 6.66667 15.9999Z" stroke="#4F4F4F" stroke-width="1.33333" stroke-linejoin="round"/>
<path d="M12 10.6666C13.1046 10.6666 14 9.7712 14 8.66663C14 7.56206 13.1046 6.66663 12 6.66663C10.8954 6.66663 10 7.56206 10 8.66663C10 9.7712 10.8954 10.6666 12 10.6666Z" stroke="#4F4F4F" stroke-width="1.33333"/>
</svg>
