<svg width="24" height="24" viewBox="0 0 24 24" fill="none" xmlns="http://www.w3.org/2000/svg">
<path d="M6.66667 16C6.66667 15.2928 6.94762 14.6145 7.44772 14.1144C7.94782 13.6143 8.62609 13.3334 9.33334 13.3334H14.6667C15.3739 13.3334 16.0522 13.6143 16.5523 14.1144C17.0524 14.6145 17.3333 15.2928 17.3333 16C17.3333 16.3537 17.1929 16.6928 16.9428 16.9428C16.6928 17.1929 16.3536 17.3334 16 17.3334H8.00001C7.64638 17.3334 7.30724 17.1929 7.0572 16.9428C6.80715 16.6928 6.66667 16.3537 6.66667 16Z" stroke="#4F4F4F" stroke-width="1.33333" stroke-linejoin="round"/>
<path d="M12 10.6667C13.1046 10.6667 14 9.77126 14 8.66669C14 7.56212 13.1046 6.66669 12 6.66669C10.8954 6.66669 10 7.56212 10 8.66669C10 9.77126 10.8954 10.6667 12 10.6667Z" stroke="#4F4F4F" stroke-width="1.33333"/>
<path d="M14 13.5H17M15.5 12L15.5 15" stroke="white" stroke-width="2.33" stroke-linecap="round"/>
<path d="M14 13.5H17M15.5 12L15.5 15" stroke="#4F4F4F" stroke-width="1.33" stroke-linecap="round"/>
</svg>
