<svg width="64" height="64" viewBox="0 0 64 64" fill="none" xmlns="http://www.w3.org/2000/svg">
<rect width="64" height="64" rx="32" fill="#F6F6F6"/>
<path d="M17.7777 42.6668C17.7777 40.7808 18.5269 38.9721 19.8605 37.6385C21.1941 36.3049 23.0028 35.5557 24.8888 35.5557H39.111C40.997 35.5557 42.8058 36.3049 44.1394 37.6385C45.4729 38.9721 46.2222 40.7808 46.2222 42.6668C46.2222 43.6098 45.8476 44.5141 45.1808 45.1809C44.514 45.8477 43.6096 46.2223 42.6666 46.2223H21.3333C20.3903 46.2223 19.4859 45.8477 18.8191 45.1809C18.1523 44.5141 17.7777 43.6098 17.7777 42.6668Z" stroke="#4F4F4F" stroke-width="3.55556" stroke-linejoin="round"/>
<path d="M32 28.4445C34.9455 28.4445 37.3333 26.0567 37.3333 23.1112C37.3333 20.1656 34.9455 17.7778 32 17.7778C29.0544 17.7778 26.6666 20.1656 26.6666 23.1112C26.6666 26.0567 29.0544 28.4445 32 28.4445Z" stroke="#4F4F4F" stroke-width="3.55556"/>
</svg>
