<svg width="25" height="24" viewBox="0 0 25 24" fill="none" xmlns="http://www.w3.org/2000/svg">
<path d="M10.5 17.55L8.72999 19.27C8.26586 19.7341 7.63637 19.9948 6.97999 19.9948C6.32361 19.9948 5.69412 19.7341 5.22999 19.27C4.76586 18.8058 4.50512 18.1763 4.50512 17.52C4.50512 16.8636 4.76586 16.2341 5.22999 15.77L9.76999 11.22C10.2156 10.7729 10.816 10.5143 11.447 10.4975C12.078 10.4807 12.6913 10.7072 13.16 11.13L13.28 11.23C13.4696 11.4156 13.7252 11.5183 13.9906 11.5155C14.256 11.5127 14.5093 11.4046 14.695 11.215C14.8806 11.0253 14.9834 10.7697 14.9805 10.5044C14.9777 10.239 14.8696 9.98562 14.68 9.79997C14.6233 9.72724 14.5632 9.65717 14.5 9.58997C13.6463 8.84729 12.5423 8.45682 11.4116 8.49767C10.2808 8.53852 9.20782 9.00763 8.40999 9.80997L3.80999 14.36C3.02835 15.2108 2.60561 16.3306 2.63006 17.4857C2.65452 18.6408 3.12427 19.7418 3.94122 20.5587C4.75817 21.3757 5.85915 21.8454 7.01424 21.8699C8.16932 21.8944 9.2892 21.4716 10.14 20.69L11.87 19C12.0408 18.8136 12.1347 18.5695 12.1328 18.3167C12.1309 18.0639 12.0333 17.8212 11.8597 17.6375C11.6861 17.4537 11.4493 17.3426 11.1971 17.3263C10.9448 17.3101 10.6957 17.39 10.5 17.55ZM21.19 3.30997C20.3488 2.47398 19.211 2.00476 18.025 2.00476C16.839 2.00476 15.7012 2.47398 14.86 3.30997L13.13 4.99997C12.9592 5.18632 12.8653 5.43045 12.8672 5.68324C12.8691 5.93603 12.9667 6.17871 13.1403 6.36246C13.3139 6.54621 13.5507 6.65739 13.8029 6.67362C14.0552 6.68986 14.3043 6.60995 14.5 6.44997L16.23 4.72997C16.6941 4.26584 17.3236 4.0051 17.98 4.0051C18.6364 4.0051 19.2659 4.26584 19.73 4.72997C20.1941 5.1941 20.4549 5.8236 20.4549 6.47997C20.4549 7.13635 20.1941 7.76584 19.73 8.22997L15.19 12.78C14.7444 13.227 14.144 13.4857 13.513 13.5024C12.882 13.5192 12.2687 13.2928 11.8 12.87L11.68 12.77C11.4904 12.5843 11.2347 12.4816 10.9694 12.4844C10.704 12.4872 10.4506 12.5953 10.265 12.785C10.0793 12.9746 9.97662 13.2302 9.97943 13.4956C9.98225 13.7609 10.0904 14.0143 10.28 14.2C10.353 14.2739 10.4297 14.344 10.51 14.41C11.3647 15.1504 12.4682 15.5394 13.5983 15.4986C14.7284 15.4578 15.801 14.9902 16.6 14.19L21.15 9.63997C21.9913 8.80405 22.4677 7.6692 22.4752 6.48322C22.4827 5.29724 22.0207 4.15646 21.19 3.30997Z" fill="#4F4F4F"/>
</svg>
